<?xml version="1.0" standalone="no"?>
<!DOCTYPE svg PUBLIC "-//W3C//DTD SVG 20010904//EN"
 "http://www.w3.org/TR/2001/REC-SVG-20010904/DTD/svg10.dtd">
<svg version="1.0" xmlns="http://www.w3.org/2000/svg"
 width="50.000000pt" height="50.000000pt" viewBox="0 0 50.000000 50.000000"
 preserveAspectRatio="xMidYMid meet">

<g transform="translate(0.000000,50.000000) scale(0.100000,-0.100000)"
fill="#000000" stroke="none">
<path d="M130 451 c0 -22 -4 -43 -10 -46 -5 -3 -10 -32 -10 -63 0 -50 4 -62
29 -90 17 -17 39 -32 51 -32 18 0 19 -3 10 -20 -15 -28 -39 -25 -73 8 l-29 27
22 -38 c13 -21 33 -40 47 -43 22 -6 24 -11 21 -45 -5 -58 16 -42 23 17 7 47 7
47 5 -14 -1 -44 3 -62 12 -62 6 0 12 8 12 18 1 16 1 16 14 -1 20 -25 34 -21
30 11 -2 15 -1 19 2 10 3 -10 11 -18 17 -18 14 0 8 122 -6 136 -4 4 7 13 24
18 57 19 90 124 54 172 -8 10 -15 36 -15 58 0 33 -3 37 -17 30 -35 -15 -153
-20 -176 -7 -33 19 -37 16 -37 -26z m204 -107 c20 -20 20 -63 0 -92 -13 -19
-24 -22 -80 -22 -56 0 -68 4 -89 25 -29 28 -31 51 -9 83 13 19 24 22 89 22 54
0 78 -4 89 -16z m-87 -206 c-3 -7 -5 -2 -5 12 0 14 2 19 5 13 2 -7 2 -19 0
-25z m40 -10 c-3 -7 -5 -2 -5 12 0 14 2 19 5 13 2 -7 2 -19 0 -25z"/>
<path d="M186 314 c-4 -10 -2 -22 3 -27 7 -7 13 -5 17 7 4 10 2 22 -3 27 -7 7
-13 5 -17 -7z"/>
<path d="M292 299 c5 -14 21 -14 26 0 2 6 -4 11 -13 11 -9 0 -15 -5 -13 -11z"/>
</g>
</svg>
