<?xml version="1.0" standalone="no"?>
<!DOCTYPE svg PUBLIC "-//W3C//DTD SVG 20010904//EN"
 "http://www.w3.org/TR/2001/REC-SVG-20010904/DTD/svg10.dtd">
<svg version="1.0" xmlns="http://www.w3.org/2000/svg"
 width="65.000000pt" height="55.000000pt" viewBox="0 0 65.000000 55.000000"
 preserveAspectRatio="xMidYMid meet">

<g transform="translate(0.000000,55.000000) scale(0.100000,-0.100000)"
fill="#000000" stroke="none">
<path d="M348 475 c-94 -70 -105 -82 -91 -96 6 -6 40 14 92 56 46 36 87 65 93
65 5 0 47 -29 92 -65 61 -47 86 -61 94 -53 8 8 1 19 -26 40 -27 22 -38 39 -42
66 -3 24 -10 37 -20 37 -8 0 -16 -6 -16 -12 -1 -7 -2 -16 -3 -19 0 -4 -16 5
-35 20 -19 14 -38 26 -43 26 -4 0 -47 -29 -95 -65z"/>
<path d="M357 400 c-72 -57 -77 -63 -77 -99 0 -51 18 -65 75 -57 l45 7 0 50 0
50 43 -3 42 -3 5 -50 c5 -48 6 -50 37 -53 60 -6 73 4 73 56 0 46 -2 48 -71
102 -39 30 -76 56 -83 58 -7 1 -47 -25 -89 -58z"/>
<path d="M91 386 c-20 -24 -6 -48 26 -44 22 2 28 8 28 28 0 30 -35 40 -54 16z"/>
<path d="M58 287 c-30 -24 -43 -86 -20 -94 7 -3 12 5 12 20 0 13 7 30 15 37
25 21 21 -110 -5 -161 -12 -22 -18 -44 -15 -49 14 -23 35 -6 56 45 26 63 46
60 51 -8 2 -30 8 -43 21 -45 25 -5 23 73 -3 113 -11 17 -20 43 -20 59 0 24 3
27 20 22 11 -3 29 -9 40 -12 14 -5 20 -2 20 10 0 8 -11 18 -24 22 -13 3 -33
19 -45 35 -26 36 -64 38 -103 6z"/>
<path d="M430 216 c0 -14 5 -26 10 -26 6 0 10 7 10 15 0 8 0 18 1 22 0 4 -4 9
-10 11 -6 2 -11 -8 -11 -22z"/>
<path d="M410 151 c0 -5 -3 -16 -6 -25 -4 -10 -1 -16 9 -16 16 0 30 27 21 41
-7 12 -24 12 -24 0z"/>
<path d="M343 83 c-7 -2 -13 -11 -13 -19 0 -18 34 -18 49 -1 17 22 -4 34 -36
20z"/>
<path d="M247 53 c-15 -14 -6 -23 23 -23 20 0 30 5 30 15 0 15 -40 21 -53 8z"/>
</g>
</svg>
