<?xml version="1.0" standalone="no"?>
<!DOCTYPE svg PUBLIC "-//W3C//DTD SVG 20010904//EN"
 "http://www.w3.org/TR/2001/REC-SVG-20010904/DTD/svg10.dtd">
<svg version="1.0" xmlns="http://www.w3.org/2000/svg"
 width="65.000000pt" height="55.000000pt" viewBox="0 0 65.000000 55.000000"
 preserveAspectRatio="xMidYMid meet">

<g transform="translate(0.000000,55.000000) scale(0.100000,-0.100000)"
fill="#000000" stroke="none">
<path d="M119 499 c-15 -14 -30 -35 -33 -46 -9 -28 8 -69 37 -88 27 -18 42
-18 177 -9 57 4 111 2 134 -4 112 -31 190 92 98 155 -24 16 -50 18 -207 18
l-179 0 -27 -26z m386 -9 c33 -17 47 -50 19 -46 -10 2 -20 11 -24 21 -5 13 -9
15 -14 7 -4 -7 -13 -12 -19 -12 -7 0 -6 4 3 10 8 5 11 12 7 16 -4 4 -12 3 -19
-4 -13 -13 8 -46 23 -36 5 3 9 2 8 -3 -3 -20 3 -23 24 -12 22 12 22 11 2 -8
-11 -10 -29 -20 -40 -20 -11 -1 -15 1 -8 4 13 5 6 33 -9 33 -5 0 -6 -6 -3 -12
4 -7 0 -4 -9 6 -8 10 -13 23 -9 28 3 6 -4 5 -16 -1 -22 -12 -28 -3 -11 17 7 9
7 9 -2 2 -18 -15 -18 -78 1 -92 13 -10 14 -10 4 2 -18 20 -16 29 7 27 11 -1
20 -7 20 -14 0 -24 29 -26 65 -4 19 11 35 16 35 11 0 -6 0 -13 0 -17 0 -4 -5
-8 -12 -10 -66 -15 -97 -19 -92 -12 5 9 -173 5 -227 -6 -96 -18 -150 91 -65
134 33 17 324 10 361 -9z m55 -57 c0 -21 -3 -24 -9 -14 -5 8 -7 20 -4 28 8 21
13 15 13 -14z"/>
<path d="M142 468 c-18 -18 -15 -53 6 -69 14 -11 15 -11 5 1 -23 25 -8 89 15
65 3 -3 0 -10 -8 -15 -11 -7 -12 -10 -2 -10 7 0 20 7 28 15 9 8 11 15 6 15 -6
0 -16 2 -24 5 -7 3 -19 0 -26 -7z"/>
<path d="M220 465 c10 -12 9 -15 -6 -16 -13 0 -14 -2 -5 -6 11 -5 11 -7 0 -14
-11 -7 -10 -9 4 -9 29 0 19 -19 -15 -29 -26 -7 -28 -9 -10 -10 24 -1 62 31 62
53 0 8 -7 22 -16 30 -20 20 -30 21 -14 1z m17 -37 c-3 -8 -6 -5 -6 6 -1 11 2
17 5 13 3 -3 4 -12 1 -19z"/>
<path d="M290 430 c-8 -5 -11 -12 -7 -16 4 -4 13 -2 19 4 15 15 7 24 -12 12z"/>
<path d="M329 424 c-12 -14 -11 -16 5 -13 11 2 21 10 24 17 5 17 -13 15 -29
-4z"/>
<path d="M164 415 c8 -8 20 -15 26 -15 7 0 6 6 -4 15 -8 8 -20 15 -26 15 -7 0
-6 -6 4 -15z"/>
<path d="M280 306 c0 -1 5 -17 11 -35 12 -34 34 -41 42 -13 2 9 8 25 12 35 4
9 3 17 -3 17 -5 0 -13 -12 -17 -27 l-7 -28 -14 28 c-13 23 -24 35 -24 23z"/>
<path d="M360 296 c0 -7 10 -21 23 -29 18 -13 19 -16 5 -16 -10 -1 -18 -6 -18
-12 0 -6 7 -8 16 -5 9 3 18 6 20 6 11 0 2 31 -11 36 -20 8 -19 21 3 27 10 3 6
5 -10 6 -18 1 -28 -4 -28 -13z"/>
<path d="M119 179 c-15 -14 -30 -35 -33 -46 -9 -28 8 -69 37 -88 27 -18 42
-18 177 -9 57 4 111 2 134 -4 112 -31 190 92 98 155 -24 16 -50 18 -207 18
l-179 0 -27 -26z m386 -9 c33 -17 47 -50 19 -46 -10 2 -20 11 -24 21 -5 13 -9
15 -14 7 -4 -7 -13 -12 -19 -12 -7 0 -6 4 3 10 8 5 11 12 7 16 -4 4 -12 3 -19
-4 -13 -13 8 -46 23 -36 5 3 9 2 8 -3 -3 -20 3 -23 24 -12 22 12 22 11 2 -8
-11 -10 -29 -20 -40 -20 -11 -1 -15 1 -8 4 13 5 6 33 -9 33 -5 0 -6 -6 -3 -12
4 -7 0 -4 -9 6 -8 10 -13 23 -9 28 3 6 -4 5 -16 -1 -22 -12 -28 -3 -11 17 7 9
7 9 -2 2 -18 -15 -18 -78 1 -92 13 -10 14 -10 4 2 -18 20 -16 29 7 27 11 -1
20 -7 20 -14 0 -24 29 -26 65 -4 19 11 35 16 35 11 0 -6 0 -13 0 -17 0 -4 -5
-8 -12 -10 -66 -15 -97 -19 -92 -12 5 9 -173 5 -227 -6 -96 -18 -150 91 -65
134 33 17 324 10 361 -9z m55 -57 c0 -21 -3 -24 -9 -14 -5 8 -7 20 -4 28 8 21
13 15 13 -14z"/>
<path d="M142 148 c-18 -18 -15 -53 6 -69 14 -11 15 -11 5 1 -23 25 -8 89 15
65 3 -3 0 -10 -8 -15 -11 -7 -12 -10 -2 -10 7 0 20 7 28 15 9 8 11 15 6 15 -6
0 -16 2 -24 5 -7 3 -19 0 -26 -7z"/>
<path d="M220 145 c10 -12 9 -15 -6 -16 -13 0 -14 -2 -5 -6 11 -5 11 -7 0 -14
-11 -7 -10 -9 4 -9 29 0 19 -19 -15 -29 -26 -7 -28 -9 -10 -10 24 -1 62 31 62
53 0 8 -7 22 -16 30 -20 20 -30 21 -14 1z m17 -37 c-3 -8 -6 -5 -6 6 -1 11 2
17 5 13 3 -3 4 -12 1 -19z"/>
<path d="M290 110 c-8 -5 -11 -12 -7 -16 4 -4 13 -2 19 4 15 15 7 24 -12 12z"/>
<path d="M329 104 c-12 -14 -11 -16 5 -13 11 2 21 10 24 17 5 17 -13 15 -29
-4z"/>
<path d="M164 95 c8 -8 20 -15 26 -15 7 0 6 6 -4 15 -8 8 -20 15 -26 15 -7 0
-6 -6 4 -15z"/>
</g>
</svg>
