<?xml version="1.0" standalone="no"?>
<!DOCTYPE svg PUBLIC "-//W3C//DTD SVG 20010904//EN"
 "http://www.w3.org/TR/2001/REC-SVG-20010904/DTD/svg10.dtd">
<svg version="1.0" xmlns="http://www.w3.org/2000/svg"
 width="65.000000pt" height="55.000000pt" viewBox="0 0 65.000000 55.000000"
 preserveAspectRatio="xMidYMid meet">

<g transform="translate(0.000000,55.000000) scale(0.100000,-0.100000)"
fill="#000000" stroke="none">
<path d="M22 528 c-18 -18 -17 -372 1 -386 7 -6 62 -13 123 -14 l109 -3 0 -35
c0 -34 -1 -35 -45 -38 -53 -4 -68 -15 -50 -37 10 -12 40 -15 165 -15 85 0 160
3 169 6 9 3 16 15 16 25 0 16 -8 19 -49 19 -52 0 -60 7 -56 50 2 25 2 25 110
28 60 1 115 8 122 14 18 14 19 368 1 386 -17 17 -599 17 -616 0z m580 -189 c2
-88 1 -163 -1 -165 -2 -2 -125 -4 -273 -4 l-268 0 0 165 0 165 270 0 269 0 3
-161z"/>
<path d="M345 428 c-67 -194 -71 -215 -43 -206 9 3 78 189 78 211 0 12 -30 8
-35 -5z"/>
<path d="M210 372 c-30 -15 -55 -32 -57 -39 -5 -13 104 -66 118 -57 18 11 8
24 -28 40 l-38 16 38 19 c20 11 37 24 37 29 0 20 -20 18 -70 -8z"/>
<path d="M386 393 c-13 -13 -5 -25 29 -39 19 -8 35 -17 35 -20 0 -3 -16 -12
-35 -20 -35 -14 -44 -28 -25 -39 14 -9 120 44 120 60 0 7 -12 18 -27 24 -16 6
-42 18 -59 26 -18 8 -34 11 -38 8z"/>
</g>
</svg>
